<svg width="378" height="24" viewBox="0 0 378 24" fill="none" xmlns="http://www.w3.org/2000/svg">
<g clip-path="url(#clip0_135_1147)">
<path d="M12 2C17.52 2 22 6.48 22 12C22 17.52 17.52 22 12 22C6.48 22 2 17.52 2 12C2 6.48 6.48 2 12 2ZM12 4C7.58 4 4 7.58 4 12C4 16.42 7.58 20 12 20C16.42 20 20 16.42 20 12C20 7.58 16.42 4 12 4ZM12 7C13.82 7 15.413 7.973 16.288 9.428L14.574 10.457C14.3043 10.0072 13.9213 9.63605 13.4634 9.38045C13.0055 9.12484 12.4885 8.99374 11.9641 9.00023C11.4397 9.00672 10.9262 9.15056 10.4747 9.41742C10.0232 9.68428 9.6496 10.0648 9.39107 10.5211C9.13254 10.9774 8.99815 11.4935 9.00128 12.0179C9.00442 12.5424 9.14498 13.0568 9.40895 13.51C9.67292 13.9632 10.0511 14.3392 10.5057 14.6007C10.9603 14.8621 11.4756 14.9998 12 15C12.5181 15.0003 13.0275 14.8664 13.4785 14.6112C13.9294 14.356 14.3065 13.9883 14.573 13.544L16.288 14.572C15.726 15.5106 14.8716 16.239 13.8559 16.6453C12.8402 17.0517 11.7192 17.1137 10.6649 16.8217C9.61058 16.5298 8.68114 15.9 8.01914 15.029C7.35713 14.1581 6.99912 13.094 7 12C7 9.24 9.24 7 12 7Z" fill="white"/>
</g>
<path d="M52.16 15.136C51.968 15.264 51.7067 15.408 51.376 15.568C51.0453 15.728 50.656 15.8667 50.208 15.984C49.7707 16.0907 49.2907 16.1387 48.768 16.128C47.8613 16.1173 47.0507 15.9573 46.336 15.648C45.6213 15.3387 45.008 14.9173 44.496 14.384C43.9947 13.84 43.6107 13.2213 43.344 12.528C43.0773 11.8347 42.944 11.0933 42.944 10.304C42.944 9.44 43.0827 8.64533 43.36 7.92C43.648 7.184 44.048 6.54933 44.56 6.016C45.072 5.472 45.6747 5.05067 46.368 4.752C47.072 4.45333 47.84 4.304 48.672 4.304C49.3653 4.304 49.9947 4.4 50.56 4.592C51.1253 4.77333 51.6107 4.98667 52.016 5.232L51.392 6.688C51.072 6.47467 50.6827 6.272 50.224 6.08C49.7653 5.888 49.264 5.792 48.72 5.792C48.1547 5.792 47.6213 5.90933 47.12 6.144C46.6187 6.368 46.176 6.68267 45.792 7.088C45.408 7.48267 45.104 7.952 44.88 8.496C44.6667 9.02933 44.56 9.60533 44.56 10.224C44.56 11.056 44.7307 11.808 45.072 12.48C45.424 13.1413 45.9147 13.664 46.544 14.048C47.184 14.432 47.9307 14.624 48.784 14.624C49.3813 14.624 49.904 14.5387 50.352 14.368C50.8107 14.1867 51.1893 13.9787 51.488 13.744L52.16 15.136ZM53.8294 12.624C53.8294 11.9627 53.984 11.3653 54.2934 10.832C54.6134 10.2987 55.0507 9.87733 55.6054 9.568C56.16 9.25867 56.7947 9.104 57.5094 9.104C58.224 9.104 58.8534 9.25867 59.3974 9.568C59.9414 9.87733 60.3627 10.2987 60.6614 10.832C60.9707 11.3653 61.1254 11.9627 61.1254 12.624C61.1254 13.2853 60.9707 13.8827 60.6614 14.416C60.3627 14.9493 59.936 15.376 59.3814 15.696C58.8374 16.0053 58.2027 16.16 57.4774 16.16C56.7734 16.16 56.144 16.016 55.5894 15.728C55.0454 15.44 54.6134 15.0293 54.2934 14.496C53.984 13.9627 53.8294 13.3387 53.8294 12.624ZM55.3334 12.64C55.3334 13.0667 55.424 13.456 55.6054 13.808C55.7974 14.1493 56.0534 14.4213 56.3734 14.624C56.6934 14.8267 57.056 14.928 57.4614 14.928C57.8774 14.928 58.2454 14.8267 58.5654 14.624C58.8854 14.4213 59.136 14.1493 59.3174 13.808C59.5094 13.456 59.6054 13.0667 59.6054 12.64C59.6054 12.2133 59.5094 11.8293 59.3174 11.488C59.136 11.136 58.8854 10.8587 58.5654 10.656C58.2454 10.4427 57.8774 10.336 57.4614 10.336C57.056 10.336 56.688 10.4427 56.3574 10.656C56.0374 10.8693 55.7867 11.152 55.6054 11.504C55.424 11.8453 55.3334 12.224 55.3334 12.64ZM67.0441 16.16C66.5641 16.16 66.1001 16.0587 65.6521 15.856C65.2148 15.6427 64.8681 15.36 64.6121 15.008V19.184H63.1241V9.264H64.4201L64.5481 10.384C64.8681 10.0107 65.2628 9.70667 65.7321 9.472C66.2121 9.22667 66.7401 9.104 67.3161 9.104C67.9455 9.104 68.5055 9.25333 68.9961 9.552C69.4975 9.85067 69.8921 10.2667 70.1801 10.8C70.4681 11.3333 70.6121 11.9573 70.6121 12.672C70.6121 13.3867 70.4521 14.0053 70.1321 14.528C69.8228 15.0507 69.3961 15.456 68.8521 15.744C68.3188 16.0213 67.7161 16.16 67.0441 16.16ZM66.7561 14.96C67.1721 14.96 67.5561 14.864 67.9081 14.672C68.2708 14.4693 68.5588 14.1973 68.7721 13.856C68.9855 13.5147 69.0921 13.1253 69.0921 12.688C69.0921 12.24 68.9908 11.8453 68.7881 11.504C68.5855 11.152 68.3135 10.88 67.9721 10.688C67.6415 10.4853 67.2681 10.384 66.8521 10.384C66.2761 10.384 65.7908 10.544 65.3961 10.864C65.0015 11.184 64.7401 11.6 64.6121 12.112V13.232C64.6975 13.7333 64.9375 14.1493 65.3321 14.48C65.7375 14.8 66.2121 14.96 66.7561 14.96ZM72.9654 19.184L74.4854 15.792L71.4134 9.376H73.0934L75.2214 14.096L77.3334 9.376H78.7094L74.4374 19.184H72.9654ZM81.6396 9.376L81.7516 10.928C81.933 10.5547 82.1836 10.2347 82.5036 9.968C82.8236 9.69067 83.1543 9.48267 83.4956 9.344C83.8476 9.19467 84.1516 9.11467 84.4076 9.104L84.3436 10.592C83.8423 10.5707 83.3996 10.672 83.0156 10.896C82.6316 11.1093 82.333 11.4027 82.1196 11.776C81.9063 12.1493 81.7996 12.5493 81.7996 12.976V16H80.3116V9.376H81.6396ZM86.3273 9.376H87.8153V16H86.3273V9.376ZM86.2153 6.992C86.2153 6.74667 86.3059 6.54933 86.4873 6.4C86.6793 6.24 86.8873 6.16 87.1113 6.16C87.3353 6.16 87.5379 6.24 87.7193 6.4C87.9006 6.54933 87.9913 6.74667 87.9913 6.992C87.9913 7.23733 87.9006 7.44 87.7193 7.6C87.5379 7.74933 87.3353 7.824 87.1113 7.824C86.8873 7.824 86.6793 7.74933 86.4873 7.6C86.3059 7.44 86.2153 7.23733 86.2153 6.992ZM93.6054 19.28C92.8694 19.28 92.256 19.152 91.7654 18.896C91.2747 18.6507 90.8214 18.336 90.4054 17.952L91.2854 16.928C91.6267 17.2693 91.9787 17.5253 92.3414 17.696C92.704 17.8773 93.1147 17.968 93.5734 17.968C94.32 17.968 94.8907 17.7867 95.2854 17.424C95.68 17.072 95.8827 16.6027 95.8934 16.016V14.8C95.6694 15.1947 95.3227 15.52 94.8534 15.776C94.384 16.032 93.8294 16.16 93.1894 16.16C92.5707 16.16 92.0054 16.0053 91.4934 15.696C90.992 15.3867 90.5867 14.9707 90.2774 14.448C89.9787 13.9147 89.8294 13.3173 89.8294 12.656C89.8294 11.9627 89.9894 11.3493 90.3094 10.816C90.6294 10.2827 91.0507 9.86667 91.5734 9.568C92.096 9.25867 92.6667 9.104 93.2854 9.104C93.8614 9.104 94.384 9.216 94.8534 9.44C95.3227 9.664 95.6747 9.952 95.9094 10.304L96.0374 9.376H97.3974V16.048C97.3974 16.6453 97.2427 17.1893 96.9334 17.68C96.624 18.1707 96.1867 18.56 95.6214 18.848C95.056 19.136 94.384 19.28 93.6054 19.28ZM91.3334 12.608C91.3334 13.0453 91.4347 13.44 91.6374 13.792C91.84 14.1333 92.112 14.4107 92.4534 14.624C92.8054 14.8267 93.1947 14.928 93.6214 14.928C94.1974 14.928 94.688 14.7733 95.0934 14.464C95.5094 14.144 95.776 13.7387 95.8934 13.248V11.936C95.7547 11.4667 95.4774 11.0827 95.0614 10.784C94.6454 10.4853 94.1654 10.336 93.6214 10.336C93.184 10.336 92.7894 10.432 92.4374 10.624C92.096 10.816 91.824 11.0827 91.6214 11.424C91.4294 11.7653 91.3334 12.16 91.3334 12.608ZM99.9835 16V3.6H101.44V10.576C101.674 10.1493 102.021 9.80267 102.48 9.536C102.938 9.25867 103.477 9.12 104.096 9.12C104.714 9.12 105.221 9.30667 105.616 9.68C106.021 10.0427 106.234 10.5173 106.256 11.104V16H104.752V11.616C104.73 11.264 104.618 10.976 104.416 10.752C104.224 10.528 103.92 10.4107 103.504 10.4C103.12 10.4 102.773 10.512 102.464 10.736C102.165 10.9493 101.925 11.2427 101.744 11.616C101.562 11.9893 101.472 12.416 101.472 12.896V16H99.9835ZM109.467 6.464H110.971V9.392H112.779V10.576H110.971V16H109.467V10.576H108.251V9.392H109.467V6.464ZM119.223 16C119.885 15.328 120.525 14.6773 121.143 14.048C121.773 13.4187 122.333 12.8053 122.823 12.208C123.314 11.6107 123.703 11.0293 123.991 10.464C124.29 9.89867 124.439 9.35467 124.439 8.832C124.439 8.36267 124.343 7.984 124.151 7.696C123.959 7.39733 123.709 7.17867 123.399 7.04C123.101 6.90133 122.786 6.832 122.455 6.832C121.986 6.832 121.607 6.928 121.319 7.12C121.042 7.312 120.839 7.54667 120.711 7.824C120.583 8.10133 120.519 8.368 120.519 8.624C120.519 8.98667 120.573 9.30667 120.679 9.584C120.786 9.86133 120.941 10.1013 121.143 10.304L120.199 11.168C119.943 11.0187 119.725 10.8 119.543 10.512C119.373 10.2133 119.239 9.89867 119.143 9.568C119.058 9.23733 119.015 8.93333 119.015 8.656C119.015 8.08 119.154 7.54133 119.431 7.04C119.719 6.53867 120.135 6.13333 120.679 5.824C121.234 5.504 121.911 5.344 122.711 5.344C123.373 5.344 123.954 5.49867 124.455 5.808C124.957 6.11733 125.346 6.528 125.623 7.04C125.901 7.54133 126.039 8.096 126.039 8.704C126.039 9.38667 125.869 10.0533 125.527 10.704C125.186 11.3547 124.749 11.9947 124.215 12.624C123.693 13.2533 123.154 13.8773 122.599 14.496H126.391V16H119.223ZM132.07 16.048C131.195 16.048 130.427 15.8347 129.766 15.408C129.105 14.9707 128.587 14.352 128.214 13.552C127.841 12.752 127.654 11.7973 127.654 10.688C127.654 8.91733 128.054 7.584 128.854 6.688C129.654 5.792 130.726 5.34933 132.07 5.36C132.934 5.34933 133.697 5.56267 134.358 6C135.03 6.42667 135.553 7.04 135.926 7.84C136.299 8.64 136.486 9.58933 136.486 10.688C136.486 11.8293 136.299 12.8 135.926 13.6C135.553 14.4 135.03 15.008 134.358 15.424C133.697 15.84 132.934 16.048 132.07 16.048ZM132.054 14.56C132.673 14.56 133.19 14.4 133.606 14.08C134.022 13.7493 134.337 13.2907 134.55 12.704C134.763 12.1173 134.875 11.4347 134.886 10.656C134.875 9.52533 134.63 8.608 134.15 7.904C133.681 7.2 132.982 6.85333 132.054 6.864C131.446 6.85333 130.934 7.01333 130.518 7.344C130.102 7.664 129.787 8.112 129.574 8.688C129.361 9.264 129.254 9.93067 129.254 10.688C129.254 11.456 129.361 12.1333 129.574 12.72C129.787 13.296 130.102 13.7493 130.518 14.08C130.934 14.4 131.446 14.56 132.054 14.56ZM137.927 16C138.588 15.328 139.228 14.6773 139.847 14.048C140.476 13.4187 141.036 12.8053 141.527 12.208C142.017 11.6107 142.407 11.0293 142.695 10.464C142.993 9.89867 143.143 9.35467 143.143 8.832C143.143 8.36267 143.047 7.984 142.855 7.696C142.663 7.39733 142.412 7.17867 142.103 7.04C141.804 6.90133 141.489 6.832 141.159 6.832C140.689 6.832 140.311 6.928 140.023 7.12C139.745 7.312 139.543 7.54667 139.414 7.824C139.287 8.10133 139.223 8.368 139.223 8.624C139.223 8.98667 139.276 9.30667 139.383 9.584C139.489 9.86133 139.644 10.1013 139.847 10.304L138.903 11.168C138.647 11.0187 138.428 10.8 138.247 10.512C138.076 10.2133 137.943 9.89867 137.847 9.568C137.761 9.23733 137.719 8.93333 137.719 8.656C137.719 8.08 137.857 7.54133 138.135 7.04C138.423 6.53867 138.839 6.13333 139.383 5.824C139.937 5.504 140.615 5.344 141.415 5.344C142.076 5.344 142.657 5.49867 143.159 5.808C143.66 6.11733 144.049 6.528 144.327 7.04C144.604 7.54133 144.743 8.096 144.743 8.704C144.743 9.38667 144.572 10.0533 144.231 10.704C143.889 11.3547 143.452 11.9947 142.919 12.624C142.396 13.2533 141.857 13.8773 141.303 14.496H145.095V16H137.927ZM146.629 5.472H149.397V16H147.829V6.96H146.629V5.472ZM156.669 15.152C156.669 14.9067 156.754 14.704 156.925 14.544C157.106 14.3733 157.304 14.288 157.517 14.288C157.709 14.288 157.896 14.3733 158.077 14.544C158.258 14.704 158.349 14.9067 158.349 15.152C158.349 15.408 158.258 15.616 158.077 15.776C157.896 15.9253 157.709 16 157.517 16C157.304 16 157.106 15.9253 156.925 15.776C156.754 15.616 156.669 15.408 156.669 15.152ZM159.772 10.224C159.772 9.424 159.921 8.66667 160.22 7.952C160.529 7.23733 160.956 6.608 161.5 6.064C162.044 5.52 162.668 5.09333 163.372 4.784C164.087 4.464 164.849 4.304 165.66 4.304C166.471 4.304 167.233 4.464 167.948 4.784C168.673 5.09333 169.308 5.52 169.852 6.064C170.396 6.608 170.823 7.23733 171.132 7.952C171.441 8.66667 171.596 9.424 171.596 10.224C171.596 11.0453 171.441 11.8133 171.132 12.528C170.823 13.232 170.396 13.856 169.852 14.4C169.308 14.944 168.673 15.3707 167.948 15.68C167.233 15.9787 166.471 16.128 165.66 16.128C164.849 16.128 164.087 15.9787 163.372 15.68C162.668 15.3813 162.044 14.9653 161.5 14.432C160.956 13.8987 160.529 13.2747 160.22 12.56C159.921 11.8347 159.772 11.056 159.772 10.224ZM161.372 10.24C161.372 10.848 161.484 11.4187 161.708 11.952C161.932 12.4747 162.241 12.9387 162.636 13.344C163.031 13.7493 163.489 14.064 164.012 14.288C164.535 14.512 165.1 14.624 165.708 14.624C166.508 14.624 167.228 14.432 167.868 14.048C168.519 13.6533 169.036 13.1253 169.42 12.464C169.804 11.792 169.996 11.0453 169.996 10.224C169.996 9.616 169.884 9.04533 169.66 8.512C169.436 7.968 169.127 7.49333 168.732 7.088C168.337 6.68267 167.879 6.368 167.356 6.144C166.833 5.90933 166.273 5.792 165.676 5.792C164.865 5.792 164.135 5.99467 163.484 6.4C162.833 6.80533 162.316 7.344 161.932 8.016C161.559 8.688 161.372 9.42933 161.372 10.24ZM173.939 19.184L173.043 18.256C173.342 18 173.576 17.6853 173.747 17.312C173.918 16.9387 174.003 16.496 174.003 15.984V9.376H175.507V16.032C175.507 16.7893 175.379 17.424 175.123 17.936C174.878 18.4587 174.483 18.8747 173.939 19.184ZM173.891 6.992C173.891 6.74667 173.982 6.54933 174.163 6.4C174.355 6.24 174.563 6.16 174.787 6.16C175.011 6.16 175.214 6.24 175.395 6.4C175.576 6.54933 175.667 6.74667 175.667 6.992C175.667 7.23733 175.576 7.44 175.395 7.6C175.214 7.74933 175.011 7.824 174.787 7.824C174.563 7.824 174.355 7.74933 174.163 7.6C173.982 7.44 173.891 7.23733 173.891 6.992ZM178.095 19.184L177.199 18.256C177.498 18 177.732 17.6853 177.903 17.312C178.074 16.9387 178.159 16.496 178.159 15.984V9.376H179.663V16.032C179.663 16.7893 179.535 17.424 179.279 17.936C179.034 18.4587 178.639 18.8747 178.095 19.184ZM178.047 6.992C178.047 6.74667 178.138 6.54933 178.319 6.4C178.511 6.24 178.719 6.16 178.943 6.16C179.167 6.16 179.37 6.24 179.551 6.4C179.732 6.54933 179.823 6.74667 179.823 6.992C179.823 7.23733 179.732 7.44 179.551 7.6C179.37 7.74933 179.167 7.824 178.943 7.824C178.719 7.824 178.511 7.74933 178.319 7.6C178.138 7.44 178.047 7.23733 178.047 6.992ZM181.579 12.624C181.579 11.9627 181.734 11.3653 182.043 10.832C182.363 10.2987 182.801 9.87733 183.355 9.568C183.91 9.25867 184.545 9.104 185.259 9.104C185.974 9.104 186.603 9.25867 187.147 9.568C187.691 9.87733 188.113 10.2987 188.411 10.832C188.721 11.3653 188.875 11.9627 188.875 12.624C188.875 13.2853 188.721 13.8827 188.411 14.416C188.113 14.9493 187.686 15.376 187.131 15.696C186.587 16.0053 185.953 16.16 185.227 16.16C184.523 16.16 183.894 16.016 183.339 15.728C182.795 15.44 182.363 15.0293 182.043 14.496C181.734 13.9627 181.579 13.3387 181.579 12.624ZM183.083 12.64C183.083 13.0667 183.174 13.456 183.355 13.808C183.547 14.1493 183.803 14.4213 184.123 14.624C184.443 14.8267 184.806 14.928 185.211 14.928C185.627 14.928 185.995 14.8267 186.315 14.624C186.635 14.4213 186.886 14.1493 187.067 13.808C187.259 13.456 187.355 13.0667 187.355 12.64C187.355 12.2133 187.259 11.8293 187.067 11.488C186.886 11.136 186.635 10.8587 186.315 10.656C185.995 10.4427 185.627 10.336 185.211 10.336C184.806 10.336 184.438 10.4427 184.107 10.656C183.787 10.8693 183.537 11.152 183.355 11.504C183.174 11.8453 183.083 12.224 183.083 12.64ZM192.218 9.376L192.314 10.64C192.57 10.16 192.917 9.78667 193.354 9.52C193.802 9.24267 194.314 9.104 194.89 9.104C195.434 9.104 195.887 9.232 196.25 9.488C196.623 9.744 196.853 10.0907 196.938 10.528C197.205 10.08 197.551 9.73333 197.978 9.488C198.415 9.232 198.879 9.104 199.37 9.104C200.01 9.104 200.517 9.29067 200.89 9.664C201.274 10.0373 201.477 10.512 201.498 11.088V16H200.01V11.648C199.989 11.3067 199.898 11.024 199.738 10.8C199.589 10.5653 199.327 10.4373 198.954 10.416C198.559 10.416 198.213 10.5333 197.914 10.768C197.615 10.992 197.381 11.2907 197.21 11.664C197.039 12.0373 196.949 12.432 196.938 12.848V16H195.434V11.648C195.423 11.3067 195.333 11.024 195.162 10.8C195.002 10.5653 194.73 10.4373 194.346 10.416C193.962 10.416 193.621 10.5333 193.322 10.768C193.023 10.992 192.789 11.2907 192.618 11.664C192.447 12.0373 192.362 12.4373 192.362 12.864V16H190.874V9.376H192.218ZM207.149 16.16C206.403 16.16 205.752 16.0107 205.197 15.712C204.653 15.4027 204.232 14.9813 203.933 14.448C203.645 13.9147 203.501 13.312 203.501 12.64C203.501 11.9893 203.661 11.3973 203.981 10.864C204.312 10.32 204.755 9.89333 205.309 9.584C205.875 9.264 206.499 9.104 207.181 9.104C208.056 9.104 208.781 9.36 209.357 9.872C209.933 10.384 210.328 11.088 210.541 11.984L205.293 13.824C205.475 14.1547 205.731 14.416 206.061 14.608C206.392 14.7893 206.765 14.88 207.181 14.88C207.48 14.88 207.763 14.8267 208.029 14.72C208.296 14.6133 208.552 14.4747 208.797 14.304L209.485 15.408C209.144 15.632 208.765 15.8133 208.349 15.952C207.944 16.0907 207.544 16.16 207.149 16.16ZM204.973 12.56C204.963 12.688 204.968 12.8107 204.989 12.928L208.845 11.504C208.696 11.184 208.477 10.9013 208.189 10.656C207.912 10.4107 207.539 10.288 207.069 10.288C206.461 10.288 205.96 10.5013 205.565 10.928C205.171 11.3547 204.973 11.8987 204.973 12.56ZM215.094 16.16C214.464 16.16 213.899 16.016 213.398 15.728C212.907 15.4293 212.518 15.0133 212.23 14.48C211.952 13.936 211.814 13.3067 211.814 12.592C211.814 11.8667 211.963 11.2427 212.262 10.72C212.56 10.1973 212.971 9.79733 213.494 9.52C214.027 9.24267 214.619 9.104 215.27 9.104C215.771 9.104 216.251 9.21067 216.71 9.424C217.168 9.62667 217.536 9.90933 217.814 10.272V3.6H219.302V16H217.798V14.976C217.478 15.328 217.083 15.616 216.614 15.84C216.155 16.0533 215.648 16.16 215.094 16.16ZM215.558 14.88C216.134 14.88 216.619 14.7253 217.014 14.416C217.408 14.1067 217.664 13.6907 217.782 13.168V11.92C217.664 11.4507 217.398 11.0613 216.982 10.752C216.576 10.4427 216.102 10.288 215.558 10.288C215.152 10.288 214.779 10.3893 214.438 10.592C214.096 10.784 213.824 11.0507 213.622 11.392C213.419 11.7333 213.318 12.128 213.318 12.576C213.318 13.0027 213.419 13.392 213.622 13.744C213.824 14.096 214.096 14.3733 214.438 14.576C214.779 14.7787 215.152 14.88 215.558 14.88ZM221.874 9.376H223.362V16H221.874V9.376ZM221.762 6.992C221.762 6.74667 221.853 6.54933 222.034 6.4C222.226 6.24 222.434 6.16 222.658 6.16C222.882 6.16 223.085 6.24 223.266 6.4C223.447 6.54933 223.538 6.74667 223.538 6.992C223.538 7.23733 223.447 7.44 223.266 7.6C223.085 7.74933 222.882 7.824 222.658 7.824C222.434 7.824 222.226 7.74933 222.034 7.6C221.853 7.44 221.762 7.23733 221.762 6.992ZM228.72 16.16C228.091 16.16 227.52 16.0267 227.008 15.76C226.507 15.4933 226.107 15.104 225.808 14.592C225.52 14.0693 225.376 13.4347 225.376 12.688C225.376 11.9413 225.526 11.3013 225.824 10.768C226.134 10.2347 226.544 9.824 227.056 9.536C227.579 9.248 228.15 9.104 228.768 9.104C229.366 9.104 229.872 9.232 230.288 9.488C230.704 9.744 231.03 10.0533 231.264 10.416L231.376 9.376H232.752V16H231.264V14.912C231.136 15.0827 230.95 15.264 230.704 15.456C230.47 15.648 230.182 15.8133 229.84 15.952C229.51 16.0907 229.136 16.16 228.72 16.16ZM229.12 14.928C229.664 14.928 230.128 14.7787 230.512 14.48C230.896 14.1707 231.147 13.7547 231.264 13.232V11.92C231.136 11.4613 230.87 11.0827 230.464 10.784C230.059 10.4853 229.595 10.336 229.072 10.336C228.667 10.336 228.299 10.432 227.968 10.624C227.638 10.816 227.371 11.0827 227.168 11.424C226.976 11.7653 226.88 12.16 226.88 12.608C226.88 13.0453 226.982 13.44 227.184 13.792C227.387 14.1333 227.659 14.4107 228 14.624C228.342 14.8267 228.715 14.928 229.12 14.928ZM234.591 15.152C234.591 14.9067 234.676 14.704 234.847 14.544C235.028 14.3733 235.226 14.288 235.439 14.288C235.631 14.288 235.818 14.3733 235.999 14.544C236.18 14.704 236.271 14.9067 236.271 15.152C236.271 15.408 236.18 15.616 235.999 15.776C235.818 15.9253 235.631 16 235.439 16C235.226 16 235.028 15.9253 234.847 15.776C234.676 15.616 234.591 15.408 234.591 15.152ZM242.325 16L247.381 3.952H247.477L252.533 16H250.741L249.541 12.96H245.093L243.861 16H242.325ZM245.637 11.616H249.013L247.365 7.408L245.637 11.616ZM254.327 3.6H255.815V16H254.327V3.6ZM258.405 3.6H259.893V16H258.405V3.6ZM271.002 4.432C271.77 4.432 272.463 4.57067 273.082 4.848C273.701 5.11467 274.191 5.52 274.554 6.064C274.917 6.59733 275.098 7.248 275.098 8.016C275.098 8.67733 274.949 9.31733 274.65 9.936C274.362 10.5547 273.871 11.024 273.178 11.344L276.09 16H274.282L271.546 11.728C271.429 11.7387 271.306 11.744 271.178 11.744H269.466V16H267.914V4.432H271.002ZM271.146 10.24C271.765 10.24 272.239 10.128 272.57 9.904C272.911 9.66933 273.151 9.38667 273.29 9.056C273.429 8.71467 273.498 8.38933 273.498 8.08C273.498 7.77067 273.423 7.45067 273.274 7.12C273.125 6.78933 272.885 6.50667 272.554 6.272C272.234 6.03733 271.802 5.92 271.258 5.92H269.466V10.24H271.146ZM278.109 9.376H279.597V16H278.109V9.376ZM277.997 6.992C277.997 6.74667 278.087 6.54933 278.269 6.4C278.461 6.24 278.669 6.16 278.893 6.16C279.117 6.16 279.319 6.24 279.501 6.4C279.682 6.54933 279.773 6.74667 279.773 6.992C279.773 7.23733 279.682 7.44 279.501 7.6C279.319 7.74933 279.117 7.824 278.893 7.824C278.669 7.824 278.461 7.74933 278.269 7.6C278.087 7.44 277.997 7.23733 277.997 6.992ZM285.387 19.28C284.651 19.28 284.037 19.152 283.547 18.896C283.056 18.6507 282.603 18.336 282.187 17.952L283.067 16.928C283.408 17.2693 283.76 17.5253 284.123 17.696C284.485 17.8773 284.896 17.968 285.355 17.968C286.101 17.968 286.672 17.7867 287.067 17.424C287.461 17.072 287.664 16.6027 287.675 16.016V14.8C287.451 15.1947 287.104 15.52 286.635 15.776C286.165 16.032 285.611 16.16 284.971 16.16C284.352 16.16 283.787 16.0053 283.275 15.696C282.773 15.3867 282.368 14.9707 282.059 14.448C281.76 13.9147 281.611 13.3173 281.611 12.656C281.611 11.9627 281.771 11.3493 282.091 10.816C282.411 10.2827 282.832 9.86667 283.355 9.568C283.877 9.25867 284.448 9.104 285.067 9.104C285.643 9.104 286.165 9.216 286.635 9.44C287.104 9.664 287.456 9.952 287.691 10.304L287.819 9.376H289.179V16.048C289.179 16.6453 289.024 17.1893 288.715 17.68C288.405 18.1707 287.968 18.56 287.403 18.848C286.837 19.136 286.165 19.28 285.387 19.28ZM283.115 12.608C283.115 13.0453 283.216 13.44 283.419 13.792C283.621 14.1333 283.893 14.4107 284.235 14.624C284.587 14.8267 284.976 14.928 285.403 14.928C285.979 14.928 286.469 14.7733 286.875 14.464C287.291 14.144 287.557 13.7387 287.675 13.248V11.936C287.536 11.4667 287.259 11.0827 286.843 10.784C286.427 10.4853 285.947 10.336 285.403 10.336C284.965 10.336 284.571 10.432 284.219 10.624C283.877 10.816 283.605 11.0827 283.403 11.424C283.211 11.7653 283.115 12.16 283.115 12.608ZM291.765 16V3.6H293.221V10.576C293.455 10.1493 293.802 9.80267 294.261 9.536C294.719 9.25867 295.258 9.12 295.877 9.12C296.495 9.12 297.002 9.30667 297.397 9.68C297.802 10.0427 298.015 10.5173 298.037 11.104V16H296.533V11.616C296.511 11.264 296.399 10.976 296.197 10.752C296.005 10.528 295.701 10.4107 295.285 10.4C294.901 10.4 294.554 10.512 294.245 10.736C293.946 10.9493 293.706 11.2427 293.525 11.616C293.343 11.9893 293.253 12.416 293.253 12.896V16H291.765ZM301.249 6.464H302.753V9.392H304.561V10.576H302.753V16H301.249V10.576H300.033V9.392H301.249V6.464ZM314.893 4.432C315.661 4.432 316.354 4.57067 316.973 4.848C317.591 5.11467 318.082 5.52 318.445 6.064C318.807 6.59733 318.989 7.248 318.989 8.016C318.989 8.67733 318.839 9.31733 318.541 9.936C318.253 10.5547 317.762 11.024 317.069 11.344L319.981 16H318.173L315.437 11.728C315.319 11.7387 315.197 11.744 315.069 11.744H313.357V16H311.805V4.432H314.893ZM315.037 10.24C315.655 10.24 316.13 10.128 316.461 9.904C316.802 9.66933 317.042 9.38667 317.181 9.056C317.319 8.71467 317.389 8.38933 317.389 8.08C317.389 7.77067 317.314 7.45067 317.165 7.12C317.015 6.78933 316.775 6.50667 316.445 6.272C316.125 6.03733 315.693 5.92 315.149 5.92H313.357V10.24H315.037ZM324.868 16.16C324.121 16.16 323.471 16.0107 322.916 15.712C322.372 15.4027 321.951 14.9813 321.652 14.448C321.364 13.9147 321.22 13.312 321.22 12.64C321.22 11.9893 321.38 11.3973 321.7 10.864C322.031 10.32 322.473 9.89333 323.028 9.584C323.593 9.264 324.217 9.104 324.9 9.104C325.775 9.104 326.5 9.36 327.076 9.872C327.652 10.384 328.047 11.088 328.26 11.984L323.012 13.824C323.193 14.1547 323.449 14.416 323.78 14.608C324.111 14.7893 324.484 14.88 324.9 14.88C325.199 14.88 325.481 14.8267 325.748 14.72C326.015 14.6133 326.271 14.4747 326.516 14.304L327.204 15.408C326.863 15.632 326.484 15.8133 326.068 15.952C325.663 16.0907 325.263 16.16 324.868 16.16ZM322.692 12.56C322.681 12.688 322.687 12.8107 322.708 12.928L326.564 11.504C326.415 11.184 326.196 10.9013 325.908 10.656C325.631 10.4107 325.257 10.288 324.788 10.288C324.18 10.288 323.679 10.5013 323.284 10.928C322.889 11.3547 322.692 11.8987 322.692 12.56ZM331.981 16.128C331.501 16.128 331.037 16.048 330.589 15.888C330.151 15.7173 329.789 15.4667 329.501 15.136L330.141 14.272C330.407 14.5387 330.69 14.7413 330.989 14.88C331.287 15.008 331.575 15.072 331.853 15.072C332.173 15.072 332.45 15.008 332.685 14.88C332.93 14.752 333.053 14.5333 333.053 14.224C333.053 13.9893 332.973 13.8027 332.812 13.664C332.663 13.5253 332.466 13.4187 332.221 13.344C331.986 13.2587 331.741 13.1733 331.485 13.088C330.354 12.7253 329.789 12.08 329.789 11.152C329.789 10.8107 329.874 10.4853 330.045 10.176C330.226 9.86667 330.487 9.616 330.829 9.424C331.181 9.232 331.613 9.136 332.125 9.136C332.583 9.136 332.994 9.19467 333.357 9.312C333.719 9.42933 334.061 9.616 334.381 9.872L333.789 10.784C333.597 10.592 333.367 10.448 333.101 10.352C332.845 10.2453 332.61 10.1867 332.397 10.176C332.109 10.176 331.853 10.2453 331.629 10.384C331.415 10.5227 331.309 10.7147 331.309 10.96C331.298 11.184 331.367 11.3653 331.517 11.504C331.666 11.632 331.858 11.7387 332.093 11.824C332.338 11.9093 332.583 11.9893 332.829 12.064C333.309 12.224 333.714 12.4427 334.045 12.72C334.386 12.9973 334.557 13.4027 334.557 13.936C334.557 14.5333 334.343 15.0507 333.917 15.488C333.49 15.9147 332.845 16.128 331.981 16.128ZM339.712 16.16C338.965 16.16 338.314 16.0107 337.76 15.712C337.216 15.4027 336.794 14.9813 336.496 14.448C336.208 13.9147 336.064 13.312 336.064 12.64C336.064 11.9893 336.224 11.3973 336.544 10.864C336.874 10.32 337.317 9.89333 337.872 9.584C338.437 9.264 339.061 9.104 339.744 9.104C340.618 9.104 341.344 9.36 341.92 9.872C342.496 10.384 342.89 11.088 343.104 11.984L337.856 13.824C338.037 14.1547 338.293 14.416 338.624 14.608C338.954 14.7893 339.328 14.88 339.744 14.88C340.042 14.88 340.325 14.8267 340.592 14.72C340.858 14.6133 341.114 14.4747 341.36 14.304L342.048 15.408C341.706 15.632 341.328 15.8133 340.912 15.952C340.506 16.0907 340.106 16.16 339.712 16.16ZM337.536 12.56C337.525 12.688 337.53 12.8107 337.552 12.928L341.408 11.504C341.258 11.184 341.04 10.9013 340.752 10.656C340.474 10.4107 340.101 10.288 339.632 10.288C339.024 10.288 338.522 10.5013 338.128 10.928C337.733 11.3547 337.536 11.8987 337.536 12.56ZM346.28 9.376L346.392 10.928C346.574 10.5547 346.824 10.2347 347.144 9.968C347.464 9.69067 347.795 9.48267 348.136 9.344C348.488 9.19467 348.792 9.11467 349.048 9.104L348.984 10.592C348.483 10.5707 348.04 10.672 347.656 10.896C347.272 11.1093 346.974 11.4027 346.76 11.776C346.547 12.1493 346.44 12.5493 346.44 12.976V16H344.952V9.376H346.28ZM353.656 16.192L349.976 9.376H351.752L353.752 13.616L355.608 9.376H357.272L353.736 16.192H353.656ZM361.79 16.16C361.043 16.16 360.393 16.0107 359.838 15.712C359.294 15.4027 358.873 14.9813 358.574 14.448C358.286 13.9147 358.142 13.312 358.142 12.64C358.142 11.9893 358.302 11.3973 358.622 10.864C358.953 10.32 359.395 9.89333 359.95 9.584C360.515 9.264 361.139 9.104 361.822 9.104C362.697 9.104 363.422 9.36 363.998 9.872C364.574 10.384 364.969 11.088 365.182 11.984L359.934 13.824C360.115 14.1547 360.371 14.416 360.702 14.608C361.033 14.7893 361.406 14.88 361.822 14.88C362.121 14.88 362.403 14.8267 362.67 14.72C362.937 14.6133 363.193 14.4747 363.438 14.304L364.126 15.408C363.785 15.632 363.406 15.8133 362.99 15.952C362.585 16.0907 362.185 16.16 361.79 16.16ZM359.614 12.56C359.603 12.688 359.609 12.8107 359.63 12.928L363.486 11.504C363.337 11.184 363.118 10.9013 362.83 10.656C362.553 10.4107 362.179 10.288 361.71 10.288C361.102 10.288 360.601 10.5013 360.206 10.928C359.811 11.3547 359.614 11.8987 359.614 12.56ZM369.734 16.16C369.105 16.16 368.54 16.016 368.038 15.728C367.548 15.4293 367.158 15.0133 366.87 14.48C366.593 13.936 366.454 13.3067 366.454 12.592C366.454 11.8667 366.604 11.2427 366.902 10.72C367.201 10.1973 367.612 9.79733 368.134 9.52C368.668 9.24267 369.26 9.104 369.91 9.104C370.412 9.104 370.892 9.21067 371.35 9.424C371.809 9.62667 372.177 9.90933 372.454 10.272V3.6H373.942V16H372.438V14.976C372.118 15.328 371.724 15.616 371.254 15.84C370.796 16.0533 370.289 16.16 369.734 16.16ZM370.198 14.88C370.774 14.88 371.26 14.7253 371.654 14.416C372.049 14.1067 372.305 13.6907 372.422 13.168V11.92C372.305 11.4507 372.038 11.0613 371.622 10.752C371.217 10.4427 370.742 10.288 370.198 10.288C369.793 10.288 369.42 10.3893 369.078 10.592C368.737 10.784 368.465 11.0507 368.262 11.392C368.06 11.7333 367.958 12.128 367.958 12.576C367.958 13.0027 368.06 13.392 368.262 13.744C368.465 14.096 368.737 14.3733 369.078 14.576C369.42 14.7787 369.793 14.88 370.198 14.88ZM375.763 15.152C375.763 14.9067 375.848 14.704 376.019 14.544C376.2 14.3733 376.397 14.288 376.611 14.288C376.803 14.288 376.989 14.3733 377.171 14.544C377.352 14.704 377.443 14.9067 377.443 15.152C377.443 15.408 377.352 15.616 377.171 15.776C376.989 15.9253 376.803 16 376.611 16C376.397 16 376.2 15.9253 376.019 15.776C375.848 15.616 375.763 15.408 375.763 15.152Z" fill="white"/>
<defs>
<clipPath id="clip0_135_1147">
<rect width="24" height="24" fill="white"/>
</clipPath>
</defs>
</svg>
